<svg id="visual" viewBox="0 0 900 600" width="900" height="600" xmlns="http://www.w3.org/2000/svg" xmlns:xlink="http://www.w3.org/1999/xlink" version="1.1"><rect x="0" y="0" width="900" height="600" fill="#232a2f"></rect><path d="M0 368L21.5 375.3C43 382.7 86 397.3 128.8 403.3C171.7 409.3 214.3 406.7 257.2 410.3C300 414 343 424 385.8 417.5C428.7 411 471.3 388 514.2 388.8C557 389.7 600 414.3 642.8 421.3C685.7 428.3 728.3 417.7 771.2 418.7C814 419.7 857 432.3 878.5 438.7L900 445L900 601L878.5 601C857 601 814 601 771.2 601C728.3 601 685.7 601 642.8 601C600 601 557 601 514.2 601C471.3 601 428.7 601 385.8 601C343 601 300 601 257.2 601C214.3 601 171.7 601 128.8 601C86 601 43 601 21.5 601L0 601Z" fill="#000000"></path><path d="M0 433L21.5 433C43 433 86 433 128.8 430.3C171.7 427.7 214.3 422.3 257.2 425.2C300 428 343 439 385.8 442.3C428.7 445.7 471.3 441.3 514.2 432C557 422.7 600 408.3 642.8 408C685.7 407.7 728.3 421.3 771.2 431.8C814 442.3 857 449.7 878.5 453.3L900 457L900 601L878.5 601C857 601 814 601 771.2 601C728.3 601 685.7 601 642.8 601C600 601 557 601 514.2 601C471.3 601 428.7 601 385.8 601C343 601 300 601 257.2 601C214.3 601 171.7 601 128.8 601C86 601 43 601 21.5 601L0 601Z" fill="#090808"></path><path d="M0 507L21.5 503.8C43 500.7 86 494.3 128.8 483.2C171.7 472 214.3 456 257.2 458.5C300 461 343 482 385.8 493.3C428.7 504.7 471.3 506.3 514.2 502.7C557 499 600 490 642.8 480.8C685.7 471.7 728.3 462.3 771.2 455.2C814 448 857 443 878.5 440.5L900 438L900 601L878.5 601C857 601 814 601 771.2 601C728.3 601 685.7 601 642.8 601C600 601 557 601 514.2 601C471.3 601 428.7 601 385.8 601C343 601 300 601 257.2 601C214.3 601 171.7 601 128.8 601C86 601 43 601 21.5 601L0 601Z" fill="#100f0f"></path><path d="M0 534L21.5 532C43 530 86 526 128.8 518.3C171.7 510.7 214.3 499.3 257.2 501.3C300 503.3 343 518.7 385.8 526.5C428.7 534.3 471.3 534.7 514.2 529.3C557 524 600 513 642.8 511.3C685.7 509.7 728.3 517.3 771.2 517.5C814 517.7 857 510.3 878.5 506.7L900 503L900 601L878.5 601C857 601 814 601 771.2 601C728.3 601 685.7 601 642.8 601C600 601 557 601 514.2 601C471.3 601 428.7 601 385.8 601C343 601 300 601 257.2 601C214.3 601 171.7 601 128.8 601C86 601 43 601 21.5 601L0 601Z" fill="#151414"></path><path d="M0 557L21.5 552.3C43 547.7 86 538.3 128.8 535.7C171.7 533 214.3 537 257.2 540.3C300 543.7 343 546.3 385.8 549.8C428.7 553.3 471.3 557.7 514.2 560.7C557 563.7 600 565.3 642.8 566C685.7 566.7 728.3 566.3 771.2 561.8C814 557.3 857 548.7 878.5 544.3L900 540L900 601L878.5 601C857 601 814 601 771.2 601C728.3 601 685.7 601 642.8 601C600 601 557 601 514.2 601C471.3 601 428.7 601 385.8 601C343 601 300 601 257.2 601C214.3 601 171.7 601 128.8 601C86 601 43 601 21.5 601L0 601Z" fill="#1a1919"></path></svg>