<svg id="visual" viewBox="0 0 900 600" width="900" height="600" xmlns="http://www.w3.org/2000/svg" xmlns:xlink="http://www.w3.org/1999/xlink" version="1.1"><rect x="0" y="0" width="900" height="600" fill="#232a2f"></rect><path d="M0 503L21.5 495.3C43 487.7 86 472.3 128.8 470.3C171.7 468.3 214.3 479.7 257.2 483C300 486.3 343 481.7 385.8 477C428.7 472.3 471.3 467.7 514.2 465.3C557 463 600 463 642.8 461.5C685.7 460 728.3 457 771.2 463.3C814 469.7 857 485.3 878.5 493.2L900 501L900 601L878.5 601C857 601 814 601 771.2 601C728.3 601 685.7 601 642.8 601C600 601 557 601 514.2 601C471.3 601 428.7 601 385.8 601C343 601 300 601 257.2 601C214.3 601 171.7 601 128.8 601C86 601 43 601 21.5 601L0 601Z" fill="#000000"></path><path d="M0 504L21.5 506.8C43 509.7 86 515.3 128.8 517.3C171.7 519.3 214.3 517.7 257.2 517.2C300 516.7 343 517.3 385.8 515.7C428.7 514 471.3 510 514.2 507.2C557 504.3 600 502.7 642.8 502.3C685.7 502 728.3 503 771.2 500.2C814 497.3 857 490.7 878.5 487.3L900 484L900 601L878.5 601C857 601 814 601 771.2 601C728.3 601 685.7 601 642.8 601C600 601 557 601 514.2 601C471.3 601 428.7 601 385.8 601C343 601 300 601 257.2 601C214.3 601 171.7 601 128.8 601C86 601 43 601 21.5 601L0 601Z" fill="#090808"></path><path d="M0 529L21.5 531.2C43 533.3 86 537.7 128.8 539.7C171.7 541.7 214.3 541.3 257.2 538.2C300 535 343 529 385.8 523.2C428.7 517.3 471.3 511.7 514.2 511C557 510.3 600 514.7 642.8 520.7C685.7 526.7 728.3 534.3 771.2 538.7C814 543 857 544 878.5 544.5L900 545L900 601L878.5 601C857 601 814 601 771.2 601C728.3 601 685.7 601 642.8 601C600 601 557 601 514.2 601C471.3 601 428.7 601 385.8 601C343 601 300 601 257.2 601C214.3 601 171.7 601 128.8 601C86 601 43 601 21.5 601L0 601Z" fill="#100f0f"></path><path d="M0 543L21.5 545.8C43 548.7 86 554.3 128.8 552.2C171.7 550 214.3 540 257.2 540.5C300 541 343 552 385.8 557.5C428.7 563 471.3 563 514.2 558.7C557 554.3 600 545.7 642.8 541.7C685.7 537.7 728.3 538.3 771.2 536.8C814 535.3 857 531.7 878.5 529.8L900 528L900 601L878.5 601C857 601 814 601 771.2 601C728.3 601 685.7 601 642.8 601C600 601 557 601 514.2 601C471.3 601 428.7 601 385.8 601C343 601 300 601 257.2 601C214.3 601 171.7 601 128.8 601C86 601 43 601 21.5 601L0 601Z" fill="#151414"></path><path d="M0 573L21.5 570.7C43 568.3 86 563.7 128.8 562.5C171.7 561.3 214.3 563.7 257.2 566.2C300 568.7 343 571.3 385.8 572.2C428.7 573 471.3 572 514.2 572.5C557 573 600 575 642.8 573.5C685.7 572 728.3 567 771.2 567.3C814 567.7 857 573.3 878.5 576.2L900 579L900 601L878.5 601C857 601 814 601 771.2 601C728.3 601 685.7 601 642.8 601C600 601 557 601 514.2 601C471.3 601 428.7 601 385.8 601C343 601 300 601 257.2 601C214.3 601 171.7 601 128.8 601C86 601 43 601 21.5 601L0 601Z" fill="#1a1919"></path></svg>